<svg xmlns:svg="http://www.w3.org/2000/svg" xmlns="http://www.w3.org/2000/svg" xmlns:xlink="http://www.w3.org/1999/xlink" id="svg1076524" viewBox="0 0 1024 768" height="768px" width="1024px" version="1.1" style="background-color:#269A8D">
  <g id="logo-group">
    <g id="title" style="font-style:normal;font-weight:700;font-size:72px;line-height:1;font-family:'Comfortaa Bold Alt2';font-variant-ligatures:none;text-align:center;text-anchor:middle" aria-label="dietron">
      <path id="path1076532" style="font-style: normal; font-weight: 700; font-size: 72px; line-height: 1; font-family: &quot;Comfortaa Bold Alt2&quot;; font-variant-ligatures: none; text-align: center; text-anchor: middle; fill: rgb(238, 197, 122);" d="m 384.05487,-5.544 c 3.88801,3.96 8.56801,5.904 14.112,5.904 5.544,0 10.224,-1.944 14.112,-5.904 3.888,-3.888 5.904,-8.568 5.904,-14.112 v -33.12 c 0,-0.936 -0.36,-1.728 -1.08,-2.448 -0.64799,-0.648 -1.44,-1.008 -2.376,-1.008 -1.00799,0 -1.8,0.36 -2.448,1.008 -0.72,0.72 -1.008,1.512 -1.008,2.448 v 18 c -3.74399,-3.24 -8.13599,-4.824 -13.104,-4.824 -5.54399,0 -10.22399,1.944 -14.112,5.832 -3.888,3.888 -5.832,8.64 -5.832,14.112 0,5.544 1.944,10.224 5.832,14.112 z m 14.112,-27.144 c 3.60001,0 6.696,1.296 9.21601,3.816 2.59199,2.52 3.88799,5.616 3.88799,9.216 0,3.6 -1.296,6.696 -3.88799,9.288 -2.52001,2.52 -5.616,3.816 -9.21601,3.816 -3.6,0 -6.696,-1.296 -9.216,-3.816 -2.592,-2.592 -3.81599,-5.688 -3.81599,-9.288 0,-3.6 1.22399,-6.696 3.81599,-9.216 2.52,-2.52 5.616,-3.816 9.216,-3.816 z" transform="translate(0 316.93264) translate(153.45614839999985 -42.22048000000001) scale(2.64) translate(-378.22287 56.232)"></path>
      <path id="path1076534" style="font-style: normal; font-weight: 700; font-size: 72px; line-height: 1; font-family: &quot;Comfortaa Bold Alt2&quot;; font-variant-ligatures: none; text-align: center; text-anchor: middle; fill: rgb(238, 197, 122);" d="m 432.87988,-38.376 c -0.72001,0.72 -1.00801,1.584 -1.00801,2.664 v 32.04 c 0,1.08 0.288,1.944 1.00801,2.664 0.71999,0.72 1.584,1.008 2.664,1.008 1.07999,0 1.94399,-0.288 2.66399,-1.008 0.64801,-0.72 1.008,-1.584 1.008,-2.664 v -32.04 c 0,-1.08 -0.35999,-1.944 -1.008,-2.664 -0.72,-0.648 -1.584,-1.008 -2.66399,-1.008 -1.08,0 -1.94401,0.36 -2.664,1.008 z m 5.976,-15.48 c -0.93601,-0.936 -2.01601,-1.44 -3.312,-1.44 -1.296,0 -2.44801,0.504 -3.38401,1.44 -0.93599,0.936 -1.368,2.016 -1.368,3.312 0,1.296 0.43201,2.448 1.368,3.384 0.936,0.936 2.08801,1.368 3.38401,1.368 1.29599,0 2.37599,-0.432 3.312,-1.368 0.93599,-0.936 1.44,-2.088 1.44,-3.384 0,-1.296 -0.50401,-2.376 -1.44,-3.312 z" transform="translate(0 316.93264) translate(294.7463084 -39.74943999999999) scale(2.64) translate(-430.79187 55.296)"></path>
      <path id="path1076536" style="font-style: normal; font-weight: 700; font-size: 72px; line-height: 1; font-family: &quot;Comfortaa Bold Alt2&quot;; font-variant-ligatures: none; text-align: center; text-anchor: middle; fill: rgb(238, 197, 122);" d="m 469.86875,0.288 c 4.752,0 8.928,-1.44 12.6,-4.464 0.792,-0.576 1.152,-1.368 1.296,-2.304 0.072,-1.008 -0.144,-1.8 -0.792,-2.592 -0.576,-0.72 -1.368,-1.152 -2.304,-1.224 -0.936,-0.072 -1.8,0.144 -2.52,0.792 -2.448,1.944 -5.184,2.88 -8.28,2.88 -3.6,0 -6.696,-1.224 -9.216,-3.816 -2.592,-2.52 -3.816,-5.616 -3.816,-9.216 0,-3.6 1.224,-6.696 3.816,-9.288 2.52,-2.52 5.616,-3.816 9.216,-3.816 2.952,0 5.616,0.936 7.992,2.736 2.304,1.8 3.816,4.104 4.608,6.912 h -12.6 c -0.936,0 -1.8,0.36 -2.448,1.008 -0.648,0.648 -1.008,1.512 -1.008,2.448 0,0.936 0.36,1.8 1.008,2.448 0.648,0.648 1.512,1.008 2.448,1.008 h 16.56 c 0.936,0 1.728,-0.36 2.376,-1.008 0.72,-0.648 1.08,-1.512 1.08,-2.448 0,-5.544 -2.016,-10.224 -5.904,-14.112 -3.888,-3.888 -8.568,-5.904 -14.112,-5.904 -5.544,0 -10.224,2.016 -14.112,5.904 -3.888,3.888 -5.832,8.568 -5.832,14.112 0,5.544 1.944,10.224 5.832,14.112 3.888,3.888 8.568,5.832 14.112,5.832 z" transform="translate(0 316.93264) translate(347.7651116 1.4979200000000077) scale(2.64) translate(-449.92475 39.672)"></path>
      <path id="path1076538" style="font-style: normal; font-weight: 700; font-size: 72px; line-height: 1; font-family: &quot;Comfortaa Bold Alt2&quot;; font-variant-ligatures: none; text-align: center; text-anchor: middle; fill: rgb(238, 197, 122);" d="m 514.0835,-7.2 c -2.088,0 -3.888,-0.72 -5.328,-2.232 -1.512,-1.44 -2.232,-3.24 -2.232,-5.328 v -16.92 h 6.408 c 0.864,0 1.656,-0.288 2.304,-0.936 0.576,-0.576 0.936,-1.368 0.936,-2.304 0,-0.864 -0.36,-1.656 -0.936,-2.304 -0.648,-0.576 -1.44,-0.936 -2.304,-0.936 h -6.408 v -10.152 c 0,-1.008 -0.36,-1.8 -1.08,-2.52 -0.72,-0.72 -1.512,-1.08 -2.52,-1.08 -1.008,0 -1.872,0.36 -2.592,1.08 -0.72,0.72 -1.008,1.512 -1.008,2.52 v 33.552 c 0,4.104 1.44,7.56 4.32,10.44 2.88,2.88 6.336,4.32 10.44,4.32 1.008,0 1.8,-0.288 2.52,-1.008 0.72,-0.72 1.08,-1.584 1.08,-2.592 0,-1.008 -0.36,-1.8 -1.08,-2.52 -0.72,-0.72 -1.512,-1.08 -2.52,-1.08 z" transform="translate(0 316.93264) translate(480.6858116000001 -30.815680000000015) scale(2.64) translate(-499.3235 51.912)"></path>
      <path id="path1076540" style="font-style: normal; font-weight: 700; font-size: 72px; line-height: 1; font-family: &quot;Comfortaa Bold Alt2&quot;; font-variant-ligatures: none; text-align: center; text-anchor: middle; fill: rgb(238, 197, 122);" d="m 548.45563,-40.464 c -6.048,0 -11.16001,2.16 -15.48,6.408 -4.24801,4.248 -6.336,9.36 -6.336,15.408 v 15.192 c 0,1.008 0.288,1.8 1.00799,2.448 0.648,0.72 1.44,1.008 2.44801,1.008 0.93599,0 1.72799,-0.288 2.376,-1.008 0.72,-0.648 1.07999,-1.44 1.07999,-2.448 v -15.192 c 0,-4.104 1.44,-7.632 4.32,-10.512 2.952,-2.952 6.48001,-4.392 10.58401,-4.392 0.93599,0 1.72799,-0.36 2.448,-1.008 0.648,-0.72 1.00799,-1.512 1.00799,-2.448 0,-0.936 -0.35999,-1.8 -1.00799,-2.448 -0.72001,-0.648 -1.51201,-1.008 -2.448,-1.008 z" transform="translate(0 316.93264) translate(555.3083948000002 -0.592960000000005) scale(2.64) translate(-526.63963 40.464)"></path>
      <path id="path1076542" style="font-style: normal; font-weight: 700; font-size: 72px; line-height: 1; font-family: &quot;Comfortaa Bold Alt2&quot;; font-variant-ligatures: none; text-align: center; text-anchor: middle; fill: rgb(238, 197, 122);" d="m 576.48275,0.288 c 5.544,0 10.224,-1.944 14.112,-5.832 3.888,-3.888 5.904,-8.568 5.904,-14.112 0,-5.544 -2.016,-10.224 -5.904,-14.112 -3.888,-3.888 -8.568,-5.904 -14.112,-5.904 -5.544,0 -10.224,2.016 -14.112,5.904 -3.888,3.888 -5.832,8.568 -5.832,14.112 0,5.544 1.944,10.224 5.832,14.112 3.888,3.888 8.568,5.832 14.112,5.832 z m 0,-33.048 c 3.6,0 6.696,1.296 9.288,3.816 2.52,2.592 3.816,5.688 3.816,9.288 0,3.6 -1.296,6.696 -3.816,9.216 -2.592,2.592 -5.688,3.816 -9.288,3.816 -3.6,0 -6.696,-1.224 -9.216,-3.816 -2.592,-2.52 -3.816,-5.616 -3.816,-9.216 0,-3.6 1.224,-6.696 3.816,-9.288 2.52,-2.52 5.616,-3.816 9.216,-3.816 z" transform="translate(0 316.93264) translate(636.7500716000004 1.4979200000000077) scale(2.64) translate(-556.53875 39.672)"></path>
      <path id="path1076544" style="font-style: normal; font-weight: 700; font-size: 72px; line-height: 1; font-family: &quot;Comfortaa Bold Alt2&quot;; font-variant-ligatures: none; text-align: center; text-anchor: middle; fill: rgb(238, 197, 122);" d="m 640.547,0.216 c 1.008,0 1.872,-0.36 2.592,-1.08 0.72,-0.72 1.008,-1.584 1.008,-2.592 V -21.96 c 0,-5.04 -1.8,-9.36 -5.328,-12.96 -3.6,-3.6 -7.992,-5.4 -13.032,-5.4 -5.112,0 -9.432,1.8 -13.032,5.4 -3.6,3.6 -5.4,7.92 -5.4,12.96 v 18.504 c 0,1.008 0.36,1.872 1.08,2.592 0.72,0.72 1.584,1.008 2.52,1.008 1.008,0 1.872,-0.288 2.592,-1.008 0.72,-0.72 1.008,-1.584 1.008,-2.592 V -21.96 c 0,-3.024 1.152,-5.688 3.312,-7.848 2.16,-2.232 4.824,-3.312 7.92,-3.312 3.096,0 5.688,1.08 7.92,3.312 2.16,2.16 3.24,4.824 3.24,7.848 v 18.576 c 0,0.936 0.36,1.8 1.08,2.52 0.72,0.72 1.584,1.08 2.52,1.08 z" transform="translate(0 316.93264) translate(773.4129716000002 -0.21280000000000143) scale(2.64) translate(-607.355 40.32)"></path>
    </g>
    <g id="tagline" style="font-style:normal;font-weight:700;font-size:32px;line-height:1;font-family:'Brandmark1 Bold';font-variant-ligatures:none;text-align:center;text-anchor:middle" aria-label="eat this much">
<path id="path30732" style="font-style: normal; font-weight: 700; font-size: 32px; line-height: 1; font-family: &quot;Brandmark1 Bold&quot;; font-variant-ligatures: none; text-align: center; text-anchor: middle; fill: rgb(238, 197, 122);" d="m 421.17725,1.248 c 1.248,0 2.464,-0.256 3.616,-0.768 1.12,-0.48 2.112,-1.184 2.944,-2.048 l -3.392,-3.2 c -0.832,0.896 -1.952,1.376 -3.168,1.376 -1.568,0 -2.944,-0.832 -3.712,-2.048 h 12.704 v -2.336 c 0,-2.4 -0.928,-4.672 -2.624,-6.368 -1.696,-1.696 -3.968,-2.656 -6.368,-2.656 -2.432,0 -4.672,0.96 -6.4,2.656 -1.696,1.696 -2.624,3.968 -2.624,6.368 0,2.4 0.928,4.672 2.624,6.368 1.728,1.696 3.968,2.656 6.4,2.656 z m -3.712,-11.328 c 0.768,-1.248 2.144,-2.08 3.712,-2.08 1.536,0 2.912,0.832 3.712,2.08 z" transform="translate(0 416.84944) translate(362.87660000000005 54.512) scale(1.2) translate(-412.15325 16.8)"></path>      <path id="path1076549" style="font-style: normal; font-weight: 700; font-size: 32px; line-height: 1; font-family: &quot;Brandmark1 Bold&quot;; font-variant-ligatures: none; text-align: center; text-anchor: middle; fill: rgb(238, 197, 122);" d="m 443.87825,-16.896 0.032,1.024 c -1.28,-0.64 -2.688,-0.992 -4.128,-0.992 -1.216,0 -2.432,0.224 -3.552,0.704 -1.088,0.48 -2.048,1.12 -2.912,1.952 -0.832,0.832 -1.472,1.824 -1.952,2.912 -0.448,1.12 -0.704,2.336 -0.704,3.552 0,1.216 0.256,2.432 0.704,3.552 0.48,1.088 1.12,2.048 1.952,2.912 0.864,0.832 1.824,1.472 2.912,1.952 1.12,0.448 2.336,0.704 3.552,0.704 1.44,0 2.848,-0.352 4.128,-0.992 l -0.032,0.736 h 4.8 v -18.016 z m -1.92,12.864 c -0.64,0.384 -1.408,0.608 -2.176,0.608 -2.368,0 -4.32,-1.952 -4.32,-4.32 0,-2.368 1.952,-4.32 4.32,-4.32 0.832,0 1.664,0.224 2.336,0.704 0.704,0.416 1.248,1.056 1.568,1.792 0.288,0.576 0.416,1.184 0.416,1.824 0,0.768 -0.192,1.504 -0.576,2.176 -0.384,0.64 -0.896,1.184 -1.568,1.536 z" transform="translate(0 416.84944) translate(389.99299999999994 54.3968) scale(1.2) translate(-430.66225 16.896)"></path>
      <path id="path1076551" style="font-style: normal; font-weight: 700; font-size: 32px; line-height: 1; font-family: &quot;Brandmark1 Bold&quot;; font-variant-ligatures: none; text-align: center; text-anchor: middle; fill: rgb(238, 197, 122);" d="m 461.27075,-12.224 v -4.48 h -5.088 v -5.728 l -4.8,1.6 v 12.416 c 0,1.344 0.256,2.624 0.768,3.84 0.48,1.184 1.216,2.24 2.112,3.136 0.896,0.928 1.952,1.632 3.136,2.144 1.216,0.512 2.528,0.768 3.872,0.768 v -4.8 c -2.816,0 -5.088,-2.272 -5.088,-5.088 v -3.808 z" transform="translate(0 416.84944) translate(420.85759999999993 47.753600000000006) scale(1.2) translate(-451.38275 22.432)"></path>
      <path id="path1076553" style="font-style: normal; font-weight: 700; font-size: 32px; line-height: 1; font-family: &quot;Brandmark1 Bold&quot;; font-variant-ligatures: none; text-align: center; text-anchor: middle; fill: rgb(238, 197, 122);" d="m 481.52075,-12.224 v -4.48 h -5.088 v -5.728 l -4.8,1.6 v 12.416 c 0,1.344 0.256,2.624 0.768,3.84 0.48,1.184 1.216,2.24 2.112,3.136 0.896,0.928 1.952,1.632 3.136,2.144 1.216,0.512 2.528,0.768 3.872,0.768 v -4.8 c -2.816,0 -5.088,-2.272 -5.088,-5.088 v -3.808 z" transform="translate(0 416.84944) translate(451.15759999999995 47.753600000000006) scale(1.2) translate(-471.63275 22.432)"></path>
      <path id="path1076555" style="font-style: normal; font-weight: 700; font-size: 32px; line-height: 1; font-family: &quot;Brandmark1 Bold&quot;; font-variant-ligatures: none; text-align: center; text-anchor: middle; fill: rgb(238, 197, 122);" d="m 496.66725,-14.208 c -1.536,-1.536 -3.552,-2.368 -5.728,-2.368 -1.152,0 -2.272,0.224 -3.296,0.704 v -8.8 l -4.8,1.6 v 13.888 c -0.032,0.256 -0.032,0.48 -0.032,0.736 h 0.032 V 1.12 h 4.8 V -8.928 c 0.224,-1.6 1.6,-2.848 3.296,-2.848 1.824,0 3.328,1.472 3.328,3.328 V 1.12 h 4.8 v -9.568 c 0,-2.176 -0.864,-4.224 -2.4,-5.76 z" transform="translate(0 416.84944) translate(470.57179999999994 45.0656) scale(1.2) translate(-482.81125 24.672)"></path>
      <path id="path1076557" style="font-style: normal; font-weight: 700; font-size: 32px; line-height: 1; font-family: &quot;Brandmark1 Bold&quot;; font-variant-ligatures: none; text-align: center; text-anchor: middle; fill: rgb(238, 197, 122);" d="m 501.59775,1.12 h 4.832 v -18.464 l -4.832,1.6 z" transform="translate(0 416.84944) translate(499.11560000000003 53.8592) scale(1.2) translate(-501.59775 17.344)"></path>
      <path id="path1076559" style="font-style: normal; font-weight: 700; font-size: 32px; line-height: 1; font-family: &quot;Brandmark1 Bold&quot;; font-variant-ligatures: none; text-align: center; text-anchor: middle; fill: rgb(238, 197, 122);" d="m 515.87425,1.312 c 3.232,0 5.856,-2.624 5.856,-5.856 0,-3.232 -2.624,-5.856 -5.856,-5.856 h -1.344 c -0.48,0 -0.832,-0.384 -0.832,-0.832 0,-0.48 0.352,-0.864 0.832,-0.864 h 6.688 v -5.024 h -6.688 c -3.232,0 -5.856,2.656 -5.856,5.888 0,3.232 2.624,5.856 5.856,5.856 h 1.344 c 0.448,0 0.832,0.384 0.832,0.832 0,0.48 -0.384,0.832 -0.832,0.832 h -7.488 v 5.024 z" transform="translate(0 416.84944) translate(513.2618 54.128) scale(1.2) translate(-508.38625 17.12)"></path>
      <path id="path1076561" style="font-style: normal; font-weight: 700; font-size: 32px; line-height: 1; font-family: &quot;Brandmark1 Bold&quot;; font-variant-ligatures: none; text-align: center; text-anchor: middle; fill: rgb(238, 197, 122);" d="m 555.64975,-14.368 c -1.44,-1.44 -3.392,-2.24 -5.44,-2.24 -1.984,0 -3.872,0.736 -5.28,2.112 -1.44,-1.376 -3.328,-2.112 -5.312,-2.112 -0.992,0 -1.984,0.192 -2.88,0.576 v -0.864 h -4.8 V 1.12 h 4.8 V -8.928 c 0,-1.568 1.28,-2.88 2.88,-2.88 1.6,0 2.912,1.312 2.912,2.88 V 1.12 h 4.8 V -8.928 c 0,-1.568 1.28,-2.88 2.88,-2.88 1.6,0 2.912,1.312 2.912,2.88 V 1.12 h 4.8 V -8.928 c 0,-2.048 -0.8,-3.968 -2.272,-5.44 z" transform="translate(0 416.84944) translate(547.5236 54.3968) scale(1.2) translate(-531.93775 16.896)"></path>
      <path id="path1076563" style="font-style: normal; font-weight: 700; font-size: 32px; line-height: 1; font-family: &quot;Brandmark1 Bold&quot;; font-variant-ligatures: none; text-align: center; text-anchor: middle; fill: rgb(238, 197, 122);" d="m 567.80225,1.344 c 2.144,0 4.16,-0.832 5.664,-2.336 1.504,-1.504 2.336,-3.52 2.336,-5.664 v -10.048 h -4.8 v 10.048 c 0,1.76 -1.44,3.2 -3.2,3.2 -1.76,0 -3.2,-1.44 -3.2,-3.2 v -10.048 h -4.8 v 10.048 c 0,2.144 0.832,4.16 2.336,5.664 1.504,1.504 3.52,2.336 5.664,2.336 z" transform="translate(0 416.84944) translate(586.9609999999998 54.6272) scale(1.2) translate(-559.80225 16.704)"></path>
      <path id="path1076565" style="font-style: normal; font-weight: 700; font-size: 32px; line-height: 1; font-family: &quot;Brandmark1 Bold&quot;; font-variant-ligatures: none; text-align: center; text-anchor: middle; fill: rgb(238, 197, 122);" d="m 586.37825,1.376 c 2.976,0 5.792,-1.472 7.52,-3.968 l -3.968,-2.72 c -0.8,1.184 -2.144,1.888 -3.552,1.888 -2.4,0 -4.32,-1.952 -4.32,-4.32 0,-2.4 1.92,-4.32 4.32,-4.32 1.376,0 2.72,0.672 3.52,1.824 l 3.936,-2.752 c -0.832,-1.184 -1.952,-2.144 -3.2,-2.816 -1.312,-0.704 -2.784,-1.056 -4.256,-1.056 -1.248,0 -2.432,0.224 -3.552,0.704 -1.088,0.48 -2.08,1.12 -2.912,1.952 -0.832,0.864 -1.504,1.824 -1.952,2.912 -0.48,1.12 -0.704,2.336 -0.704,3.552 0,1.216 0.224,2.432 0.704,3.552 0.448,1.088 1.12,2.048 1.952,2.912 0.832,0.832 1.824,1.472 2.912,1.952 1.12,0.448 2.304,0.704 3.552,0.704 z" transform="translate(0 416.84944) translate(613.9081999999999 54.4352) scale(1.2) translate(-577.25825 16.864)"></path>
      <path id="path1076567" style="font-style: normal; font-weight: 700; font-size: 32px; line-height: 1; font-family: &quot;Brandmark1 Bold&quot;; font-variant-ligatures: none; text-align: center; text-anchor: middle; fill: rgb(238, 197, 122);" d="m 608.72975,-14.208 c -1.536,-1.536 -3.552,-2.368 -5.728,-2.368 -1.152,0 -2.272,0.224 -3.296,0.704 v -8.8 l -4.8,1.6 v 13.888 c -0.032,0.256 -0.032,0.48 -0.032,0.736 h 0.032 V 1.12 h 4.8 V -8.928 c 0.224,-1.6 1.6,-2.848 3.296,-2.848 1.824,0 3.328,1.472 3.328,3.328 V 1.12 h 4.8 v -9.568 c 0,-2.176 -0.864,-4.224 -2.4,-5.76 z" transform="translate(0 416.84944) translate(641.0467999999998 45.0656) scale(1.2) translate(-594.87375 24.672)"></path>
    </g>
  </g>
</svg>